<?xml version="1.0" encoding="UTF-8"?>
<svg xmlns="http://www.w3.org/2000/svg" width="1600" height="1346" viewBox="0 0 1600 1346"><defs/>
<rect width="100%" height="100%" fill="#ffffff" />
<g id="components">
<g id="ProjectBreadcrumb" data-component="ProjectBreadcrumb"><rect x="344" y="93" width="301" height="22" fill="none" stroke="#5B8FF9" stroke-width="1" /><text x="348" y="107" font-size="12" fill="#2b2b2b">ProjectBreadcrumb</text></g><g id="ProjectHeader" data-component="ProjectHeader"><rect x="304" y="136" width="1272" height="124" fill="none" stroke="#5B8FF9" stroke-width="1" /><text x="308" y="150" font-size="12" fill="#2b2b2b">ProjectHeader</text></g><g id="ProjectTabs" data-component="ProjectTabs"><rect x="329" y="301" width="1222" height="62" fill="none" stroke="#5B8FF9" stroke-width="1" /><text x="333" y="315" font-size="12" fill="#2b2b2b">ProjectTabs</text></g><g id="StageStepper" data-component="StageStepper"><rect x="304" y="276" width="1272" height="112" fill="none" stroke="#5B8FF9" stroke-width="1" /><text x="308" y="290" font-size="12" fill="#2b2b2b">StageStepper</text></g><g id="Overview-About_Project" data-component="About Project"><rect x="304" y="604" width="844" height="104" fill="none" stroke="#5B8FF9" stroke-width="1" /><text x="308" y="618" font-size="12" fill="#2b2b2b">About Project</text></g><g id="Overview-Comments" data-component="Comments"><rect x="304" y="720" width="844" height="359" fill="none" stroke="#5B8FF9" stroke-width="1" /><text x="308" y="734" font-size="12" fill="#2b2b2b">Comments</text></g><g id="Overview-Key_Resources" data-component="Key Resources"><rect x="304" y="1091" width="844" height="168" fill="none" stroke="#5B8FF9" stroke-width="1" /><text x="308" y="1105" font-size="12" fill="#2b2b2b">Key Resources</text></g><g id="Overview-Member_Roles" data-component="Member Roles"><rect x="1160" y="604" width="416" height="450" fill="none" stroke="#5B8FF9" stroke-width="1" /><text x="1164" y="618" font-size="12" fill="#2b2b2b">Member Roles</text></g><g id="Overview-History" data-component="History"><rect x="1160" y="1066" width="416" height="256" fill="none" stroke="#5B8FF9" stroke-width="1" /><text x="1164" y="1080" font-size="12" fill="#2b2b2b">History</text></g><g id="AppButton-0" data-component="AppButton"><rect x="16" y="92" width="247" height="40" fill="none" stroke="#5B8FF9" stroke-width="1" /><text x="20" y="106" font-size="12" fill="#2b2b2b">AppButton</text></g></g><g id="modules"><g id="module-overview" data-module="overview"><rect x="298" y="604" width="1284" height="718" fill="none" stroke="#52C41A" stroke-dasharray="4 2" stroke-width="1" /><text x="302" y="618" font-size="12" fill="#255d1e">overview</text></g></g></svg>