<?xml version="1.0" encoding="UTF-8"?>
<svg width="2000" height="1800" viewBox="0 0 2000 1800" xmlns="http://www.w3.org/2000/svg">
    <defs>
        <style>
            .title { fill: #1A73E8; font-family: 'Inter', sans-serif; font-size: 28px; font-weight: 700; }
            .group-title { fill: #1A73E8; font-family: 'Inter', sans-serif; font-size: 20px; font-weight: 600; }
            .section-title { fill: #1A73E8; font-family: 'Inter', sans-serif; font-size: 16px; font-weight: 600; }
            .process-box { fill: #f8f9fa; stroke: #1A73E8; stroke-width: 2; }
            .data-box { fill: #e8f0fe; stroke: #1A73E8; stroke-width: 1; }
            .data-text { fill: #6c757d; font-family: 'Inter', sans-serif; font-size: 12px; }
            .arrow { stroke: #1A73E8; stroke-width: 2; fill: none; marker-end: url(#arrowhead); }
            .group-box { fill: none; stroke: #1A73E8; stroke-width: 3; stroke-dasharray: 5,5; }
            .group-bg { fill: rgba(26, 115, 232, 0.05); stroke: #1A73E8; stroke-width: 2; }
            .label-text { fill: #666; font-family: 'Inter', sans-serif; font-size: 10px; }
        </style>
        <marker id="arrowhead" markerWidth="10" markerHeight="7" refX="9" refY="3.5" orient="auto">
            <polygon points="0 0, 10 3.5, 0 7" fill="#1A73E8" />
        </marker>
    </defs>

    <!-- Main Title -->
    <text x="1000" y="30" text-anchor="middle" class="title">FabManage - System Architecture & Data Flow</text>

    <!-- GROUP 1: BUSINESS PROCESSES -->
    <g id="business-processes">
        <text x="50" y="70" class="group-title">1. BUSINESS PROCESSES</text>
        <rect x="30" y="80" width="1940" height="400" class="group-bg" rx="12" />
        
        <!-- Client Process -->
        <g id="client-process">
            <text x="60" y="100" class="label-text">Client Process (Molecule)</text>
            <rect x="60" y="110" width="180" height="100" class="process-box" rx="8" />
            <text x="150" y="130" text-anchor="middle" class="section-title">CLIENT</text>
            <text x="70" y="150" class="data-text">• Nazwa firmy</text>
            <text x="70" y="165" class="data-text">• NIP, REGON</text>
            <text x="70" y="180" class="data-text">• Kontakt</text>
            <text x="70" y="195" class="data-text">• Status, Segment</text>
        </g>

        <!-- Project Process -->
        <g id="project-process">
            <text x="280" y="100" class="label-text">Project Process (Molecule)</text>
            <rect x="280" y="110" width="180" height="100" class="process-box" rx="8" />
            <text x="370" y="130" text-anchor="middle" class="section-title">PROJECT</text>
            <text x="290" y="150" class="data-text">• Numer, Nazwa</text>
            <text x="290" y="165" class="data-text">• Typ, Status</text>
            <text x="290" y="180" class="data-text">• Budget, Deadline</text>
            <text x="290" y="195" class="data-text">• Moduły</text>
        </g>

        <!-- Tiles Process -->
        <g id="tiles-process">
            <text x="500" y="100" class="label-text">Tiles Process (Molecule)</text>
            <rect x="500" y="110" width="180" height="100" class="process-box" rx="8" />
            <text x="590" y="130" text-anchor="middle" class="section-title">TILES</text>
            <text x="510" y="150" class="data-text">• Nazwa, Status</text>
            <text x="510" y="165" class="data-text">• Priorytet, Termin</text>
            <text x="510" y="180" class="data-text">• Projektant</text>
            <text x="510" y="195" class="data-text">• Geometria</text>
        </g>

        <!-- BOM Process -->
        <g id="bom-process">
            <text x="720" y="100" class="label-text">BOM Process (Molecule)</text>
            <rect x="720" y="110" width="180" height="100" class="process-box" rx="8" />
            <text x="810" y="130" text-anchor="middle" class="section-title">BOM</text>
            <text x="730" y="150" class="data-text">• Materiały</text>
            <text x="730" y="165" class="data-text">• Ilości</text>
            <text x="730" y="180" class="data-text">• Dostawcy</text>
            <text x="730" y="195" class="data-text">• Koszty</text>
        </g>

        <!-- Inventory Process -->
        <g id="inventory-process">
            <text x="940" y="100" class="label-text">Inventory Process (Molecule)</text>
            <rect x="940" y="110" width="180" height="100" class="process-box" rx="8" />
            <text x="1030" y="130" text-anchor="middle" class="section-title">INVENTORY</text>
            <text x="950" y="150" class="data-text">• Stan magazynowy</text>
            <text x="950" y="165" class="data-text">• Lokalizacja</text>
            <text x="950" y="180" class="data-text">• ABC Class</text>
            <text x="950" y="195" class="data-text">• Ceny</text>
        </g>

        <!-- Material Ordering Process -->
        <g id="material-ordering-process">
            <text x="1160" y="100" class="label-text">Material Ordering Process (Molecule)</text>
            <rect x="1160" y="110" width="180" height="100" class="process-box" rx="8" />
            <text x="1250" y="130" text-anchor="middle" class="section-title">MATERIAL ORDERING</text>
            <text x="1170" y="150" class="data-text">• Zamówienia</text>
            <text x="1170" y="165" class="data-text">• Dostawcy</text>
            <text x="1170" y="180" class="data-text">• Terminy</text>
            <text x="1170" y="195" class="data-text">• Status</text>
        </g>

        <!-- Production Process -->
        <g id="production-process">
            <text x="1380" y="100" class="label-text">Production Process (Molecule)</text>
            <rect x="1380" y="110" width="180" height="100" class="process-box" rx="8" />
            <text x="1470" y="130" text-anchor="middle" class="section-title">PRODUCTION</text>
            <text x="1390" y="150" class="data-text">• CNC</text>
            <text x="1390" y="165" class="data-text">• Montaż</text>
            <text x="1390" y="180" class="data-text">• Kontrola</text>
            <text x="1390" y="195" class="data-text">• Pakowanie</text>
        </g>

        <!-- Transport Process -->
        <g id="transport-process">
            <text x="1600" y="100" class="label-text">Transport Process (Molecule)</text>
            <rect x="1600" y="110" width="180" height="100" class="process-box" rx="8" />
            <text x="1690" y="130" text-anchor="middle" class="section-title">TRANSPORT</text>
            <text x="1610" y="150" class="data-text">• Logistyka</text>
            <text x="1610" y="165" class="data-text">• Trasy</text>
            <text x="1610" y="180" class="data-text">• Dostawa</text>
            <text x="1610" y="195" class="data-text">• Status</text>
        </g>

        <!-- Process Flow Arrows -->
        <g id="process-arrows">
            <text x="50" y="250" class="label-text">Process Flow (Molecule)</text>
            <line x1="240" y1="160" x2="280" y2="160" class="arrow" />
            <line x1="460" y1="160" x2="500" y2="160" class="arrow" />
            <line x1="680" y1="160" x2="720" y2="160" class="arrow" />
            <line x1="900" y1="160" x2="940" y2="160" class="arrow" />
            <line x1="1120" y1="160" x2="1160" y2="160" class="arrow" />
            <line x1="1340" y1="160" x2="1380" y2="160" class="arrow" />
            <line x1="1560" y1="160" x2="1600" y2="160" class="arrow" />
        </g>
    </g>

    <!-- GROUP 2: REACT MODULES -->
    <g id="react-modules">
        <text x="50" y="520" class="group-title">2. REACT MODULES</text>
        <rect x="30" y="530" width="1940" height="300" class="group-bg" rx="12" />
        
        <!-- Projects Module -->
        <g id="projects-module">
            <text x="60" y="550" class="label-text">Projects Module (Molecule)</text>
            <rect x="60" y="560" width="140" height="80" class="data-box" rx="4" />
            <text x="130" y="580" text-anchor="middle" class="section-title">Projects</text>
            <text x="70" y="600" class="data-text">• Lista projektów</text>
            <text x="70" y="615" class="data-text">• Szczegóły</text>
            <text x="70" y="630" class="data-text">• Edycja</text>
        </g>

        <!-- Tiles Module -->
        <g id="tiles-module">
            <text x="220" y="550" class="label-text">Tiles Module (Molecule)</text>
            <rect x="220" y="560" width="140" height="80" class="data-box" rx="4" />
            <text x="290" y="580" text-anchor="middle" class="section-title">Tiles</text>
            <text x="230" y="600" class="data-text">• Lista kafelków</text>
            <text x="230" y="615" class="data-text">• Status</text>
            <text x="230" y="630" class="data-text">• Priorytety</text>
        </g>

        <!-- Materials Module -->
        <g id="materials-module">
            <text x="380" y="550" class="label-text">Materials Module (Molecule)</text>
            <rect x="380" y="560" width="140" height="80" class="data-box" rx="4" />
            <text x="450" y="580" text-anchor="middle" class="section-title">Materials</text>
            <text x="390" y="600" class="data-text">• Magazyn</text>
            <text x="390" y="615" class="data-text">• BOM</text>
            <text x="390" y="630" class="data-text">• Zamówienia</text>
        </g>

        <!-- CNC Module -->
        <g id="cnc-module">
            <text x="540" y="550" class="label-text">CNC Module (Molecule)</text>
            <rect x="540" y="560" width="140" height="80" class="data-box" rx="4" />
            <text x="610" y="580" text-anchor="middle" class="section-title">CNC</text>
            <text x="550" y="600" class="data-text">• Maszyny</text>
            <text x="550" y="615" class="data-text">• Kolejka</text>
            <text x="550" y="630" class="data-text">• Produkcja</text>
        </g>

        <!-- Production Module -->
        <g id="production-module">
            <text x="700" y="550" class="label-text">Production Module (Molecule)</text>
            <rect x="700" y="560" width="140" height="80" class="data-box" rx="4" />
            <text x="770" y="580" text-anchor="middle" class="section-title">Production</text>
            <text x="710" y="600" class="data-text">• Montaż</text>
            <text x="710" y="615" class="data-text">• Kontrola</text>
            <text x="710" y="630" class="data-text">• Pakowanie</text>
        </g>

        <!-- Logistics Module -->
        <g id="logistics-module">
            <text x="860" y="550" class="label-text">Logistics Module (Molecule)</text>
            <rect x="860" y="560" width="140" height="80" class="data-box" rx="4" />
            <text x="930" y="580" text-anchor="middle" class="section-title">Logistics</text>
            <text x="870" y="600" class="data-text">• Trasy</text>
            <text x="870" y="615" class="data-text">• Dostawy</text>
            <text x="870" y="630" class="data-text">• Status</text>
        </g>

        <!-- Calendar Module -->
        <g id="calendar-module">
            <text x="1020" y="550" class="label-text">Calendar Module (Molecule)</text>
            <rect x="1020" y="560" width="140" height="80" class="data-box" rx="4" />
            <text x="1090" y="580" text-anchor="middle" class="section-title">Calendar</text>
            <text x="1030" y="600" class="data-text">• Harmonogram</text>
            <text x="1030" y="615" class="data-text">• Zadania</text>
            <text x="1030" y="630" class="data-text">• Spotkania</text>
        </g>

        <!-- Dashboard Module -->
        <g id="dashboard-module">
            <text x="1180" y="550" class="label-text">Dashboard Module (Molecule)</text>
            <rect x="1180" y="560" width="140" height="80" class="data-box" rx="4" />
            <text x="1250" y="580" text-anchor="middle" class="section-title">Dashboard</text>
            <text x="1190" y="600" class="data-text">• KPI</text>
            <text x="1190" y="615" class="data-text">• Raporty</text>
            <text x="1190" y="630" class="data-text">• Monitoring</text>
        </g>

        <!-- Settings Module -->
        <g id="settings-module">
            <text x="1340" y="550" class="label-text">Settings Module (Molecule)</text>
            <rect x="1340" y="560" width="140" height="80" class="data-box" rx="4" />
            <text x="1410" y="580" text-anchor="middle" class="section-title">Settings</text>
            <text x="1350" y="600" class="data-text">• Konfiguracja</text>
            <text x="1350" y="615" class="data-text">• Użytkownicy</text>
            <text x="1350" y="630" class="data-text">• Uprawnienia</text>
        </g>

        <!-- Subcontractors Module -->
        <g id="subcontractors-module">
            <text x="1500" y="550" class="label-text">Subcontractors Module (Molecule)</text>
            <rect x="1500" y="560" width="140" height="80" class="data-box" rx="4" />
            <text x="1570" y="580" text-anchor="middle" class="section-title">Subcontractors</text>
            <text x="1510" y="600" class="data-text">• Podwykonawcy</text>
            <text x="1510" y="615" class="data-text">• Zamówienia</text>
            <text x="1510" y="630" class="data-text">• Oceny</text>
        </g>

        <!-- Designer Module -->
        <g id="designer-module">
            <text x="1660" y="550" class="label-text">Designer Module (Molecule)</text>
            <rect x="1660" y="560" width="140" height="80" class="data-box" rx="4" />
            <text x="1730" y="580" text-anchor="middle" class="section-title">Designer</text>
            <text x="1670" y="600" class="data-text">• CAD Tools</text>
            <text x="1670" y="615" class="data-text">• Speckle</text>
            <text x="1670" y="630" class="data-text">• DXF Export</text>
        </g>
    </g>

    <!-- GROUP 3: DATA FLOW -->
    <g id="data-flow">
        <text x="50" y="870" class="group-title">3. DATA FLOW & ARCHITECTURE</text>
        <rect x="30" y="880" width="1940" height="250" class="group-bg" rx="12" />
        
        <!-- Frontend -->
        <g id="frontend">
            <text x="60" y="900" class="label-text">Frontend (Molecule)</text>
            <rect x="60" y="910" width="200" height="100" class="data-box" rx="4" />
            <text x="160" y="930" text-anchor="middle" class="section-title">Frontend (React)</text>
            <text x="70" y="950" class="data-text">• Zustand Stores</text>
            <text x="70" y="965" class="data-text">• TanStack Query</text>
            <text x="70" y="980" class="data-text">• Ant Design UI</text>
            <text x="70" y="995" class="data-text">• React Router v7</text>
        </g>

        <!-- API -->
        <g id="api">
            <text x="300" y="900" class="label-text">API (Molecule)</text>
            <rect x="300" y="910" width="200" height="100" class="data-box" rx="4" />
            <text x="400" y="930" text-anchor="middle" class="section-title">API (Express.js)</text>
            <text x="310" y="950" class="data-text">• REST Endpoints</text>
            <text x="310" y="965" class="data-text">• Authentication</text>
            <text x="310" y="980" class="data-text">• Validation</text>
            <text x="310" y="995" class="data-text">• CORS</text>
        </g>

        <!-- Database -->
        <g id="database">
            <text x="540" y="900" class="label-text">Database (Molecule)</text>
            <rect x="540" y="910" width="200" height="100" class="data-box" rx="4" />
            <text x="640" y="930" text-anchor="middle" class="section-title">Database (PostgreSQL)</text>
            <text x="550" y="950" class="data-text">• Tables</text>
            <text x="550" y="965" class="data-text">• Relations</text>
            <text x="550" y="980" class="data-text">• Indexes</text>
            <text x="550" y="995" class="data-text">• RLS Policies</text>
        </g>

        <!-- Speckle -->
        <g id="speckle">
            <text x="780" y="900" class="label-text">Speckle (Molecule)</text>
            <rect x="780" y="910" width="200" height="100" class="data-box" rx="4" />
            <text x="880" y="930" text-anchor="middle" class="section-title">Speckle 3D</text>
            <text x="790" y="950" class="data-text">• 3D Models</text>
            <text x="790" y="965" class="data-text">• Geometry</text>
            <text x="790" y="980" class="data-text">• Sync</text>
            <text x="790" y="995" class="data-text">• DXF Export</text>
        </g>

        <!-- Docker -->
        <g id="docker">
            <text x="1020" y="900" class="label-text">Docker (Molecule)</text>
            <rect x="1020" y="910" width="200" height="100" class="data-box" rx="4" />
            <text x="1120" y="930" text-anchor="middle" class="section-title">Docker</text>
            <text x="1030" y="950" class="data-text">• Containers</text>
            <text x="1030" y="965" class="data-text">• Services</text>
            <text x="1030" y="980" class="data-text">• Networking</text>
            <text x="1030" y="995" class="data-text">• Compose</text>
        </g>

        <!-- PWA -->
        <g id="pwa">
            <text x="1260" y="900" class="label-text">PWA (Molecule)</text>
            <rect x="1260" y="910" width="200" height="100" class="data-box" rx="4" />
            <text x="1360" y="930" text-anchor="middle" class="section-title">PWA</text>
            <text x="1270" y="950" class="data-text">• Service Worker</text>
            <text x="1270" y="965" class="data-text">• Offline</text>
            <text x="1270" y="980" class="data-text">• Notifications</text>
            <text x="1270" y="995" class="data-text">• Installable</text>
        </g>

        <!-- WebSocket -->
        <g id="websocket">
            <text x="1500" y="900" class="label-text">WebSocket (Molecule)</text>
            <rect x="1500" y="910" width="200" height="100" class="data-box" rx="4" />
            <text x="1600" y="930" text-anchor="middle" class="section-title">WebSocket</text>
            <text x="1510" y="950" class="data-text">• Real-time</text>
            <text x="1510" y="965" class="data-text">• Updates</text>
            <text x="1510" y="980" class="data-text">• Notifications</text>
            <text x="1510" y="995" class="data-text">• Sync</text>
        </g>

        <!-- Data Flow Arrows -->
        <g id="data-flow-arrows">
            <text x="50" y="1050" class="label-text">Data Flow (Molecule)</text>
            <line x1="260" y1="960" x2="300" y2="960" class="arrow" />
            <line x1="500" y1="960" x2="540" y2="960" class="arrow" />
            <line x1="740" y1="960" x2="780" y2="960" class="arrow" />
            <line x1="980" y1="960" x2="1020" y2="960" class="arrow" />
            <line x1="1220" y1="960" x2="1260" y2="960" class="arrow" />
            <line x1="1460" y1="960" x2="1500" y2="960" class="arrow" />
        </g>
    </g>

    <!-- GROUP 4: TECHNOLOGY STACK -->
    <g id="technology-stack">
        <text x="50" y="1180" class="group-title">4. TECHNOLOGY STACK</text>
        <rect x="30" y="1190" width="1940" height="300" class="group-bg" rx="12" />
        
        <!-- Frontend Tech -->
        <g id="frontend-tech">
            <text x="60" y="1210" class="label-text">Frontend Tech (Molecule)</text>
            <rect x="60" y="1220" width="300" height="120" class="data-box" rx="4" />
            <text x="210" y="1240" text-anchor="middle" class="section-title">Frontend</text>
            <text x="70" y="1260" class="data-text">• React 18 + TypeScript</text>
            <text x="70" y="1275" class="data-text">• Vite + Ant Design</text>
            <text x="70" y="1290" class="data-text">• Zustand + TanStack Query</text>
            <text x="70" y="1305" class="data-text">• React Router v7</text>
            <text x="70" y="1320" class="data-text">• PWA + Service Worker</text>
        </g>

        <!-- Backend Tech -->
        <g id="backend-tech">
            <text x="380" y="1210" class="label-text">Backend Tech (Molecule)</text>
            <rect x="380" y="1220" width="300" height="120" class="data-box" rx="4" />
            <text x="530" y="1240" text-anchor="middle" class="section-title">Backend</text>
            <text x="390" y="1260" class="data-text">• Express.js + Node.js</text>
            <text x="390" y="1275" class="data-text">• PostgreSQL + pg</text>
            <text x="390" y="1290" class="data-text">• CORS + dotenv</text>
            <text x="390" y="1305" class="data-text">• TypeScript</text>
            <text x="390" y="1320" class="data-text">• JWT Authentication</text>
        </g>

        <!-- Database Tech -->
        <g id="database-tech">
            <text x="700" y="1210" class="label-text">Database Tech (Molecule)</text>
            <rect x="700" y="1220" width="300" height="120" class="data-box" rx="4" />
            <text x="850" y="1240" text-anchor="middle" class="section-title">Database</text>
            <text x="710" y="1260" class="data-text">• PostgreSQL 15</text>
            <text x="710" y="1275" class="data-text">• Docker Compose</text>
            <text x="710" y="1290" class="data-text">• Schema + Seed</text>
            <text x="710" y="1305" class="data-text">• Relations + Indexes</text>
            <text x="710" y="1320" class="data-text">• RLS Policies</text>
        </g>

        <!-- Integration Tech -->
        <g id="integration-tech">
            <text x="1020" y="1210" class="label-text">Integration Tech (Molecule)</text>
            <rect x="1020" y="1220" width="300" height="120" class="data-box" rx="4" />
            <text x="1170" y="1240" text-anchor="middle" class="section-title">Integration</text>
            <text x="1030" y="1260" class="data-text">• Speckle 3D</text>
            <text x="1030" y="1275" class="data-text">• DXF Export</text>
            <text x="1030" y="1290" class="data-text">• WebSocket</text>
            <text x="1030" y="1305" class="data-text">• PWA</text>
            <text x="1030" y="1320" class="data-text">• Real-time Sync</text>
        </g>

        <!-- Performance Tech -->
        <g id="performance-tech">
            <text x="1340" y="1210" class="label-text">Performance Tech (Molecule)</text>
            <rect x="1340" y="1220" width="300" height="120" class="data-box" rx="4" />
            <text x="1490" y="1240" text-anchor="middle" class="section-title">Performance</text>
            <text x="1350" y="1260" class="data-text">• Code Splitting</text>
            <text x="1350" y="1275" class="data-text">• Lazy Loading</text>
            <text x="1350" y="1290" class="data-text">• Virtualization</text>
            <text x="1350" y="1305" class="data-text">• Image Optimization</text>
            <text x="1350" y="1320" class="data-text">• Bundle Optimization</text>
        </g>

        <!-- Quality Tech -->
        <g id="quality-tech">
            <text x="1660" y="1210" class="label-text">Quality Tech (Molecule)</text>
            <rect x="1660" y="1220" width="300" height="120" class="data-box" rx="4" />
            <text x="1810" y="1240" text-anchor="middle" class="section-title">Quality & Security</text>
            <text x="1670" y="1260" class="data-text">• TypeScript Strict</text>
            <text x="1670" y="1275" class="data-text">• ESLint + Prettier</text>
            <text x="1670" y="1290" class="data-text">• Zod Validation</text>
            <text x="1670" y="1305" class="data-text">• DOMPurify</text>
            <text x="1670" y="1320" class="data-text">• Vitest + Playwright</text>
        </g>
    </g>

    <!-- GROUP 5: MONITORING -->
    <g id="monitoring">
        <text x="50" y="1520" class="group-title">5. MONITORING & ANALYTICS</text>
        <rect x="30" y="1530" width="1940" height="200" class="group-bg" rx="12" />
        
        <!-- Dashboard -->
        <g id="monitoring-dashboard">
            <text x="60" y="1550" class="label-text">Dashboard (Molecule)</text>
            <rect x="60" y="1560" width="200" height="80" class="data-box" rx="4" />
            <text x="160" y="1580" text-anchor="middle" class="section-title">Dashboard</text>
            <text x="70" y="1600" class="data-text">• KPI Metrics</text>
            <text x="70" y="1615" class="data-text">• Real-time Stats</text>
            <text x="70" y="1630" class="data-text">• Performance</text>
        </g>

        <!-- Calendar -->
        <g id="monitoring-calendar">
            <text x="280" y="1550" class="label-text">Calendar (Molecule)</text>
            <rect x="280" y="1560" width="200" height="80" class="data-box" rx="4" />
            <text x="380" y="1580" text-anchor="middle" class="section-title">Calendar</text>
            <text x="290" y="1600" class="data-text">• Project Timeline</text>
            <text x="290" y="1615" class="data-text">• Task Scheduling</text>
            <text x="290" y="1630" class="data-text">• Deadlines</text>
        </g>

        <!-- Reports -->
        <g id="monitoring-reports">
            <text x="500" y="1550" class="label-text">Reports (Molecule)</text>
            <rect x="500" y="1560" width="200" height="80" class="data-box" rx="4" />
            <text x="600" y="1580" text-anchor="middle" class="section-title">Reports</text>
            <text x="510" y="1600" class="data-text">• Production Reports</text>
            <text x="510" y="1615" class="data-text">• Cost Analysis</text>
            <text x="510" y="1630" class="data-text">• Quality Metrics</text>
        </g>

        <!-- Notifications -->
        <g id="monitoring-notifications">
            <text x="720" y="1550" class="label-text">Notifications (Molecule)</text>
            <rect x="720" y="1560" width="200" height="80" class="data-box" rx="4" />
            <text x="820" y="1580" text-anchor="middle" class="section-title">Notifications</text>
            <text x="730" y="1600" class="data-text">• Real-time Alerts</text>
            <text x="730" y="1615" class="data-text">• Status Updates</text>
            <text x="730" y="1630" class="data-text">• System Events</text>
        </g>

        <!-- Analytics -->
        <g id="monitoring-analytics">
            <text x="940" y="1550" class="label-text">Analytics (Molecule)</text>
            <rect x="940" y="1560" width="200" height="80" class="data-box" rx="4" />
            <text x="1040" y="1580" text-anchor="middle" class="section-title">Analytics</text>
            <text x="950" y="1600" class="data-text">• Usage Statistics</text>
            <text x="950" y="1615" class="data-text">• Performance Data</text>
            <text x="950" y="1630" class="data-text">• Trends</text>
        </g>

        <!-- Logs -->
        <g id="monitoring-logs">
            <text x="1160" y="1550" class="label-text">Logs (Molecule)</text>
            <rect x="1160" y="1560" width="200" height="80" class="data-box" rx="4" />
            <text x="1260" y="1580" text-anchor="middle" class="section-title">Logs</text>
            <text x="1170" y="1600" class="data-text">• Activity Log</text>
            <text x="1170" y="1615" class="data-text">• Error Tracking</text>
            <text x="1170" y="1630" class="data-text">• Audit Trail</text>
        </g>

        <!-- Health Check -->
        <g id="monitoring-health">
            <text x="1380" y="1550" class="label-text">Health Check (Molecule)</text>
            <rect x="1380" y="1560" width="200" height="80" class="data-box" rx="4" />
            <text x="1480" y="1580" text-anchor="middle" class="section-title">Health Check</text>
            <text x="1390" y="1600" class="data-text">• System Status</text>
            <text x="1390" y="1615" class="data-text">• Database Health</text>
            <text x="1390" y="1630" class="data-text">• API Status</text>
        </g>

        <!-- Backup -->
        <g id="monitoring-backup">
            <text x="1600" y="1550" class="label-text">Backup (Molecule)</text>
            <rect x="1600" y="1560" width="200" height="80" class="data-box" rx="4" />
            <text x="1700" y="1580" text-anchor="middle" class="section-title">Backup</text>
            <text x="1610" y="1600" class="data-text">• Data Backup</text>
            <text x="1610" y="1615" class="data-text">• Recovery</text>
            <text x="1610" y="1630" class="data-text">• Versioning</text>
        </g>
    </g>

    <!-- Footer -->
    <g id="footer">
        <text x="1000" y="1780" text-anchor="middle" class="data-text">FabManage - System zarządzania produkcją z integracją CAD/Speckle</text>
        <text x="1000" y="1800" text-anchor="middle" class="data-text">React 18 + TypeScript + Vite + Ant Design + Zustand + TanStack Query + PostgreSQL</text>
        <text x="1000" y="1820" text-anchor="middle" class="data-text">PWA z pełną konteneryzacją Docker</text>
    </g>
</svg>