<?xml version="1.0" encoding="UTF-8"?>
<svg width="2000" height="1800" viewBox="0 0 2000 1800" xmlns="http://www.w3.org/2000/svg">
    <defs>
        <style>
            .title { fill: #1A73E8; font-family: 'Inter', sans-serif; font-size: 28px; font-weight: 700; }
            .group-title { fill: #1A73E8; font-family: 'Inter', sans-serif; font-size: 20px; font-weight: 600; }
            .section-title { fill: #1A73E8; font-family: 'Inter', sans-serif; font-size: 16px; font-weight: 600; }
            .process-box { fill: #f8f9fa; stroke: #1A73E8; stroke-width: 2; rx: 8; }
            .data-box { fill: #e8f0fe; stroke: #1A73E8; stroke-width: 1; rx: 4; }
            .data-text { fill: #6c757d; font-family: 'Inter', sans-serif; font-size: 12px; }
            .arrow { stroke: #1A73E8; stroke-width: 2; fill: none; marker-end: url(#arrowhead); }
            .group-box { fill: none; stroke: #1A73E8; stroke-width: 3; rx: 12; stroke-dasharray: 5,5; }
            .group-bg { fill: rgba(26, 115, 232, 0.05); stroke: #1A73E8; stroke-width: 2; rx: 12; }
        </style>
        <marker id="arrowhead" markerWidth="10" markerHeight="7" refX="9" refY="3.5" orient="auto">
            <polygon points="0 0, 10 3.5, 0 7" fill="#1A73E8" />
        </marker>
    </defs>

    <!-- Main Title -->
    <text x="1000" y="40" text-anchor="middle" class="title">FabManage - System Zarządzania Produkcją</text>

    <!-- GROUP 1: BUSINESS PROCESSES -->
    <rect x="30" y="70" width="1940" height="400" class="group-bg" />
    <text x="50" y="95" class="group-title">1. BUSINESS PROCESSES</text>
    
    <!-- CLIENT Section -->
    <rect x="60" y="120" width="180" height="100" class="process-box" />
    <text x="150" y="140" text-anchor="middle" class="section-title">CLIENT</text>
    <text x="70" y="160" class="data-text">• Nazwa firmy</text>
    <text x="70" y="175" class="data-text">• NIP, REGON</text>
    <text x="70" y="190" class="data-text">• Kontakt</text>
    <text x="70" y="205" class="data-text">• Status, Segment</text>

    <!-- PROJECT Section -->
    <rect x="280" y="120" width="180" height="100" class="process-box" />
    <text x="370" y="140" text-anchor="middle" class="section-title">PROJECT</text>
    <text x="290" y="160" class="data-text">• Numer, Nazwa</text>
    <text x="290" y="175" class="data-text">• Typ, Status</text>
    <text x="290" y="190" class="data-text">• Budget, Deadline</text>
    <text x="290" y="205" class="data-text">• Moduły</text>

    <!-- TILES Section -->
    <rect x="500" y="120" width="180" height="100" class="process-box" />
    <text x="590" y="140" text-anchor="middle" class="section-title">TILES</text>
    <text x="510" y="160" class="data-text">• Nazwa, Status</text>
    <text x="510" y="175" class="data-text">• Priorytet, Termin</text>
    <text x="510" y="190" class="data-text">• Projektant</text>
    <text x="510" y="205" class="data-text">• Geometria</text>

    <!-- BOM Section -->
    <rect x="720" y="120" width="180" height="100" class="process-box" />
    <text x="810" y="140" text-anchor="middle" class="section-title">BOM</text>
    <text x="730" y="160" class="data-text">• Materiały</text>
    <text x="730" y="175" class="data-text">• Ilości</text>
    <text x="730" y="190" class="data-text">• Dostawcy</text>
    <text x="730" y="205" class="data-text">• Koszty</text>

    <!-- INVENTORY Section -->
    <rect x="940" y="120" width="180" height="100" class="process-box" />
    <text x="1030" y="140" text-anchor="middle" class="section-title">INVENTORY</text>
    <text x="950" y="160" class="data-text">• Stan magazynowy</text>
    <text x="950" y="175" class="data-text">• Lokalizacja</text>
    <text x="950" y="190" class="data-text">• ABC Class</text>
    <text x="950" y="205" class="data-text">• Ceny</text>

    <!-- MATERIAL ORDERING Section -->
    <rect x="1160" y="120" width="180" height="100" class="process-box" />
    <text x="1250" y="140" text-anchor="middle" class="section-title">MATERIAL ORDERING</text>
    <text x="1170" y="160" class="data-text">• Zamówienia</text>
    <text x="1170" y="175" class="data-text">• Dostawcy</text>
    <text x="1170" y="190" class="data-text">• Terminy</text>
    <text x="1170" y="205" class="data-text">• Status</text>

    <!-- PRODUCTION Section -->
    <rect x="1380" y="120" width="180" height="100" class="process-box" />
    <text x="1470" y="140" text-anchor="middle" class="section-title">PRODUCTION</text>
    <text x="1390" y="160" class="data-text">• CNC</text>
    <text x="1390" y="175" class="data-text">• Montaż</text>
    <text x="1390" y="190" class="data-text">• Kontrola</text>
    <text x="1390" y="205" class="data-text">• Pakowanie</text>

    <!-- TRANSPORT Section -->
    <rect x="1600" y="120" width="180" height="100" class="process-box" />
    <text x="1690" y="140" text-anchor="middle" class="section-title">TRANSPORT</text>
    <text x="1610" y="160" class="data-text">• Logistyka</text>
    <text x="1610" y="175" class="data-text">• Trasy</text>
    <text x="1610" y="190" class="data-text">• Dostawa</text>
    <text x="1610" y="205" class="data-text">• Status</text>

    <!-- Arrows in Business Processes -->
    <line x1="240" y1="170" x2="280" y2="170" class="arrow" />
    <line x1="460" y1="170" x2="500" y2="170" class="arrow" />
    <line x1="680" y1="170" x2="720" y2="170" class="arrow" />
    <line x1="900" y1="170" x2="940" y2="170" class="arrow" />
    <line x1="1120" y1="170" x2="1160" y2="170" class="arrow" />
    <line x1="1340" y1="170" x2="1380" y2="170" class="arrow" />
    <line x1="1560" y1="170" x2="1600" y2="170" class="arrow" />

    <!-- GROUP 2: REACT MODULES -->
    <rect x="30" y="500" width="1940" height="300" class="group-bg" />
    <text x="50" y="525" class="group-title">2. REACT MODULES</text>
    
    <!-- Projects Module -->
    <rect x="60" y="550" width="140" height="80" class="data-box" />
    <text x="130" y="570" text-anchor="middle" class="section-title">Projects</text>
    <text x="70" y="590" class="data-text">• Lista projektów</text>
    <text x="70" y="605" class="data-text">• Szczegóły</text>
    <text x="70" y="620" class="data-text">• Edycja</text>

    <!-- Tiles Module -->
    <rect x="220" y="550" width="140" height="80" class="data-box" />
    <text x="290" y="570" text-anchor="middle" class="section-title">Tiles</text>
    <text x="230" y="590" class="data-text">• Lista kafelków</text>
    <text x="230" y="605" class="data-text">• Status</text>
    <text x="230" y="620" class="data-text">• Priorytety</text>

    <!-- Materials Module -->
    <rect x="380" y="550" width="140" height="80" class="data-box" />
    <text x="450" y="570" text-anchor="middle" class="section-title">Materials</text>
    <text x="390" y="590" class="data-text">• Magazyn</text>
    <text x="390" y="605" class="data-text">• BOM</text>
    <text x="390" y="620" class="data-text">• Zamówienia</text>

    <!-- CNC Module -->
    <rect x="540" y="550" width="140" height="80" class="data-box" />
    <text x="610" y="570" text-anchor="middle" class="section-title">CNC</text>
    <text x="550" y="590" class="data-text">• Maszyny</text>
    <text x="550" y="605" class="data-text">• Kolejka</text>
    <text x="550" y="620" class="data-text">• Produkcja</text>

    <!-- Production Module -->
    <rect x="700" y="550" width="140" height="80" class="data-box" />
    <text x="770" y="570" text-anchor="middle" class="section-title">Production</text>
    <text x="710" y="590" class="data-text">• Montaż</text>
    <text x="710" y="605" class="data-text">• Kontrola</text>
    <text x="710" y="620" class="data-text">• Pakowanie</text>

    <!-- Logistics Module -->
    <rect x="860" y="550" width="140" height="80" class="data-box" />
    <text x="930" y="570" text-anchor="middle" class="section-title">Logistics</text>
    <text x="870" y="590" class="data-text">• Trasy</text>
    <text x="870" y="605" class="data-text">• Dostawy</text>
    <text x="870" y="620" class="data-text">• Status</text>

    <!-- Calendar Module -->
    <rect x="1020" y="550" width="140" height="80" class="data-box" />
    <text x="1090" y="570" text-anchor="middle" class="section-title">Calendar</text>
    <text x="1030" y="590" class="data-text">• Harmonogram</text>
    <text x="1030" y="605" class="data-text">• Zadania</text>
    <text x="1030" y="620" class="data-text">• Spotkania</text>

    <!-- Dashboard Module -->
    <rect x="1180" y="550" width="140" height="80" class="data-box" />
    <text x="1250" y="570" text-anchor="middle" class="section-title">Dashboard</text>
    <text x="1190" y="590" class="data-text">• KPI</text>
    <text x="1190" y="605" class="data-text">• Raporty</text>
    <text x="1190" y="620" class="data-text">• Monitoring</text>

    <!-- Settings Module -->
    <rect x="1340" y="550" width="140" height="80" class="data-box" />
    <text x="1410" y="570" text-anchor="middle" class="section-title">Settings</text>
    <text x="1350" y="590" class="data-text">• Konfiguracja</text>
    <text x="1350" y="605" class="data-text">• Użytkownicy</text>
    <text x="1350" y="620" class="data-text">• Uprawnienia</text>

    <!-- Subcontractors Module -->
    <rect x="1500" y="550" width="140" height="80" class="data-box" />
    <text x="1570" y="570" text-anchor="middle" class="section-title">Subcontractors</text>
    <text x="1510" y="590" class="data-text">• Podwykonawcy</text>
    <text x="1510" y="605" class="data-text">• Zamówienia</text>
    <text x="1510" y="620" class="data-text">• Oceny</text>

    <!-- Designer Module -->
    <rect x="1660" y="550" width="140" height="80" class="data-box" />
    <text x="1730" y="570" text-anchor="middle" class="section-title">Designer</text>
    <text x="1670" y="590" class="data-text">• CAD Tools</text>
    <text x="1670" y="605" class="data-text">• Speckle</text>
    <text x="1670" y="620" class="data-text">• DXF Export</text>

    <!-- GROUP 3: DATA FLOW -->
    <rect x="30" y="830" width="1940" height="250" class="group-bg" />
    <text x="50" y="855" class="group-title">3. DATA FLOW & ARCHITECTURE</text>
    
    <!-- Frontend -->
    <rect x="60" y="880" width="200" height="100" class="data-box" />
    <text x="160" y="900" text-anchor="middle" class="section-title">Frontend (React)</text>
    <text x="70" y="920" class="data-text">• Zustand Stores</text>
    <text x="70" y="935" class="data-text">• TanStack Query</text>
    <text x="70" y="950" class="data-text">• Ant Design UI</text>
    <text x="70" y="965" class="data-text">• React Router v7</text>

    <!-- API -->
    <rect x="300" y="880" width="200" height="100" class="data-box" />
    <text x="400" y="900" text-anchor="middle" class="section-title">API (Express.js)</text>
    <text x="310" y="920" class="data-text">• REST Endpoints</text>
    <text x="310" y="935" class="data-text">• Authentication</text>
    <text x="310" y="950" class="data-text">• Validation</text>
    <text x="310" y="965" class="data-text">• CORS</text>

    <!-- Database -->
    <rect x="540" y="880" width="200" height="100" class="data-box" />
    <text x="640" y="900" text-anchor="middle" class="section-title">Database (PostgreSQL)</text>
    <text x="550" y="920" class="data-text">• Tables</text>
    <text x="550" y="935" class="data-text">• Relations</text>
    <text x="550" y="950" class="data-text">• Indexes</text>
    <text x="550" y="965" class="data-text">• RLS Policies</text>

    <!-- Speckle -->
    <rect x="780" y="880" width="200" height="100" class="data-box" />
    <text x="880" y="900" text-anchor="middle" class="section-title">Speckle 3D</text>
    <text x="790" y="920" class="data-text">• 3D Models</text>
    <text x="790" y="935" class="data-text">• Geometry</text>
    <text x="790" y="950" class="data-text">• Sync</text>
    <text x="790" y="965" class="data-text">• DXF Export</text>

    <!-- Docker -->
    <rect x="1020" y="880" width="200" height="100" class="data-box" />
    <text x="1120" y="900" text-anchor="middle" class="section-title">Docker</text>
    <text x="1030" y="920" class="data-text">• Containers</text>
    <text x="1030" y="935" class="data-text">• Services</text>
    <text x="1030" y="950" class="data-text">• Networking</text>
    <text x="1030" y="965" class="data-text">• Compose</text>

    <!-- PWA -->
    <rect x="1260" y="880" width="200" height="100" class="data-box" />
    <text x="1360" y="900" text-anchor="middle" class="section-title">PWA</text>
    <text x="1270" y="920" class="data-text">• Service Worker</text>
    <text x="1270" y="935" class="data-text">• Offline</text>
    <text x="1270" y="950" class="data-text">• Notifications</text>
    <text x="1270" y="965" class="data-text">• Installable</text>

    <!-- WebSocket -->
    <rect x="1500" y="880" width="200" height="100" class="data-box" />
    <text x="1600" y="900" text-anchor="middle" class="section-title">WebSocket</text>
    <text x="1510" y="920" class="data-text">• Real-time</text>
    <text x="1510" y="935" class="data-text">• Updates</text>
    <text x="1510" y="950" class="data-text">• Notifications</text>
    <text x="1510" y="965" class="data-text">• Sync</text>

    <!-- Arrows in Data Flow -->
    <line x1="260" y1="930" x2="300" y2="930" class="arrow" />
    <line x1="500" y1="930" x2="540" y2="930" class="arrow" />
    <line x1="740" y1="930" x2="780" y2="930" class="arrow" />
    <line x1="980" y1="930" x2="1020" y2="930" class="arrow" />
    <line x1="1220" y1="930" x2="1260" y2="930" class="arrow" />
    <line x1="1460" y1="930" x2="1500" y2="930" class="arrow" />

    <!-- GROUP 4: TECHNOLOGY STACK -->
    <rect x="30" y="1110" width="1940" height="300" class="group-bg" />
    <text x="50" y="1135" class="group-title">4. TECHNOLOGY STACK</text>
    
    <!-- Frontend Tech -->
    <rect x="60" y="1160" width="300" height="120" class="data-box" />
    <text x="210" y="1180" text-anchor="middle" class="section-title">Frontend</text>
    <text x="70" y="1200" class="data-text">• React 18 + TypeScript</text>
    <text x="70" y="1215" class="data-text">• Vite + Ant Design</text>
    <text x="70" y="1230" class="data-text">• Zustand + TanStack Query</text>
    <text x="70" y="1245" class="data-text">• React Router v7</text>
    <text x="70" y="1260" class="data-text">• PWA + Service Worker</text>

    <!-- Backend Tech -->
    <rect x="380" y="1160" width="300" height="120" class="data-box" />
    <text x="530" y="1180" text-anchor="middle" class="section-title">Backend</text>
    <text x="390" y="1200" class="data-text">• Express.js + Node.js</text>
    <text x="390" y="1215" class="data-text">• PostgreSQL + pg</text>
    <text x="390" y="1230" class="data-text">• CORS + dotenv</text>
    <text x="390" y="1245" class="data-text">• TypeScript</text>
    <text x="390" y="1260" class="data-text">• JWT Authentication</text>

    <!-- Database Tech -->
    <rect x="700" y="1160" width="300" height="120" class="data-box" />
    <text x="850" y="1180" text-anchor="middle" class="section-title">Database</text>
    <text x="710" y="1200" class="data-text">• PostgreSQL 15</text>
    <text x="710" y="1215" class="data-text">• Docker Compose</text>
    <text x="710" y="1230" class="data-text">• Schema + Seed</text>
    <text x="710" y="1245" class="data-text">• Relations + Indexes</text>
    <text x="710" y="1260" class="data-text">• RLS Policies</text>

    <!-- Integration Tech -->
    <rect x="1020" y="1160" width="300" height="120" class="data-box" />
    <text x="1170" y="1180" text-anchor="middle" class="section-title">Integration</text>
    <text x="1030" y="1200" class="data-text">• Speckle 3D</text>
    <text x="1030" y="1215" class="data-text">• DXF Export</text>
    <text x="1030" y="1230" class="data-text">• WebSocket</text>
    <text x="1030" y="1245" class="data-text">• PWA</text>
    <text x="1030" y="1260" class="data-text">• Real-time Sync</text>

    <!-- Performance Tech -->
    <rect x="1340" y="1160" width="300" height="120" class="data-box" />
    <text x="1490" y="1180" text-anchor="middle" class="section-title">Performance</text>
    <text x="1350" y="1200" class="data-text">• Code Splitting</text>
    <text x="1350" y="1215" class="data-text">• Lazy Loading</text>
    <text x="1350" y="1230" class="data-text">• Virtualization</text>
    <text x="1350" y="1245" class="data-text">• Image Optimization</text>
    <text x="1350" y="1260" class="data-text">• Bundle Optimization</text>

    <!-- Quality Tech -->
    <rect x="1660" y="1160" width="300" height="120" class="data-box" />
    <text x="1810" y="1180" text-anchor="middle" class="section-title">Quality & Security</text>
    <text x="1670" y="1200" class="data-text">• TypeScript Strict</text>
    <text x="1670" y="1215" class="data-text">• ESLint + Prettier</text>
    <text x="1670" y="1230" class="data-text">• Zod Validation</text>
    <text x="1670" y="1245" class="data-text">• DOMPurify</text>
    <text x="1670" y="1260" class="data-text">• Vitest + Playwright</text>

    <!-- GROUP 5: MONITORING & ANALYTICS -->
    <rect x="30" y="1440" width="1940" height="200" class="group-bg" />
    <text x="50" y="1465" class="group-title">5. MONITORING & ANALYTICS</text>
    
    <!-- Dashboard -->
    <rect x="60" y="1490" width="200" height="80" class="data-box" />
    <text x="160" y="1510" text-anchor="middle" class="section-title">Dashboard</text>
    <text x="70" y="1530" class="data-text">• KPI Metrics</text>
    <text x="70" y="1545" class="data-text">• Real-time Stats</text>
    <text x="70" y="1560" class="data-text">• Performance</text>

    <!-- Calendar -->
    <rect x="280" y="1490" width="200" height="80" class="data-box" />
    <text x="380" y="1510" text-anchor="middle" class="section-title">Calendar</text>
    <text x="290" y="1530" class="data-text">• Project Timeline</text>
    <text x="290" y="1545" class="data-text">• Task Scheduling</text>
    <text x="290" y="1560" class="data-text">• Deadlines</text>

    <!-- Reports -->
    <rect x="500" y="1490" width="200" height="80" class="data-box" />
    <text x="600" y="1510" text-anchor="middle" class="section-title">Reports</text>
    <text x="510" y="1530" class="data-text">• Production Reports</text>
    <text x="510" y="1545" class="data-text">• Cost Analysis</text>
    <text x="510" y="1560" class="data-text">• Quality Metrics</text>

    <!-- Notifications -->
    <rect x="720" y="1490" width="200" height="80" class="data-box" />
    <text x="820" y="1510" text-anchor="middle" class="section-title">Notifications</text>
    <text x="730" y="1530" class="data-text">• Real-time Alerts</text>
    <text x="730" y="1545" class="data-text">• Status Updates</text>
    <text x="730" y="1560" class="data-text">• System Events</text>

    <!-- Analytics -->
    <rect x="940" y="1490" width="200" height="80" class="data-box" />
    <text x="1040" y="1510" text-anchor="middle" class="section-title">Analytics</text>
    <text x="950" y="1530" class="data-text">• Usage Statistics</text>
    <text x="950" y="1545" class="data-text">• Performance Data</text>
    <text x="950" y="1560" class="data-text">• Trends</text>

    <!-- Logs -->
    <rect x="1160" y="1490" width="200" height="80" class="data-box" />
    <text x="1260" y="1510" text-anchor="middle" class="section-title">Logs</text>
    <text x="1170" y="1530" class="data-text">• Activity Log</text>
    <text x="1170" y="1545" class="data-text">• Error Tracking</text>
    <text x="1170" y="1560" class="data-text">• Audit Trail</text>

    <!-- Health Check -->
    <rect x="1380" y="1490" width="200" height="80" class="data-box" />
    <text x="1480" y="1510" text-anchor="middle" class="section-title">Health Check</text>
    <text x="1390" y="1530" class="data-text">• System Status</text>
    <text x="1390" y="1545" class="data-text">• Database Health</text>
    <text x="1390" y="1560" class="data-text">• API Status</text>

    <!-- Backup -->
    <rect x="1600" y="1490" width="200" height="80" class="data-box" />
    <text x="1700" y="1510" text-anchor="middle" class="section-title">Backup</text>
    <text x="1610" y="1530" class="data-text">• Data Backup</text>
    <text x="1610" y="1545" class="data-text">• Recovery</text>
    <text x="1610" y="1560" class="data-text">• Versioning</text>

    <!-- Footer -->
    <text x="1000" y="1700" text-anchor="middle" class="data-text">FabManage - System zarządzania produkcją z integracją CAD/Speckle</text>
    <text x="1000" y="1720" text-anchor="middle" class="data-text">React 18 + TypeScript + Vite + Ant Design + Zustand + TanStack Query + PostgreSQL</text>
    <text x="1000" y="1740" text-anchor="middle" class="data-text">PWA z pełną konteneryzacją Docker</text>
</svg>
