<?xml version="1.0" encoding="UTF-8"?>
<svg width="1400" height="1000"
    xmlns="http://www.w3.org/2000/svg">
    <defs>
        <linearGradient id="primaryGradient" x1="0%" y1="0%" x2="100%" y2="100%">
            <stop offset="0%" style="stop-color:#1890ff;stop-opacity:1" />
            <stop offset="100%" style="stop-color:#096dd9;stop-opacity:1" />
        </linearGradient>
        <linearGradient id="successGradient" x1="0%" y1="0%" x2="100%" y2="100%">
            <stop offset="0%" style="stop-color:#52c41a;stop-opacity:1" />
            <stop offset="100%" style="stop-color:#389e0d;stop-opacity:1" />
        </linearGradient>
        <linearGradient id="cardGradient" x1="0%" y1="0%" x2="100%" y2="100%">
            <stop offset="0%" style="stop-color:#fafafa;stop-opacity:1" />
            <stop offset="100%" style="stop-color:#f0f0f0;stop-opacity:1" />
        </linearGradient>
        <linearGradient id="imageGradient" x1="0%" y1="0%" x2="100%" y2="100%">
            <stop offset="0%" style="stop-color:#667eea;stop-opacity:1" />
            <stop offset="100%" style="stop-color:#764ba2;stop-opacity:1" />
        </linearGradient>
        <filter id="cardShadow" x="-20%" y="-20%" width="140%" height="140%">
            <feDropShadow dx="0" dy="2" stdDeviation="4" flood-color="#000000" flood-opacity="0.1"/>
        </filter>
    </defs>

    <!-- Title -->
    <text x="20" y="30" font-family="Arial, sans-serif" font-size="24" font-weight="bold" fill="#333">Detailed Component Visual Mockups</text>

    <!-- ProjectCard Component -->
    <g transform="translate(20, 50)">
        <text x="0" y="20" font-family="Arial, sans-serif" font-size="16" font-weight="bold" fill="#333">ProjectCard Component (Ant Design)</text>

        <!-- Card Container -->
        <rect x="0" y="30" width="320" height="480" fill="white" stroke="#d9d9d9" stroke-width="1" rx="8" filter="url(#cardShadow)"/>

        <!-- Image/Thumbnail Area -->
        <rect x="0" y="30" width="320" height="200" fill="url(#imageGradient)" stroke="none" rx="8"/>
        <text x="160" y="130" font-family="Arial, sans-serif" font-size="48" text-anchor="middle" fill="white">🖼️</text>

        <!-- Card Content -->
        <rect x="0" y="230" width="320" height="200" fill="white" stroke="none"/>

        <!-- Project Header -->
        <text x="16" y="250" font-family="Arial, sans-serif" font-size="16" font-weight="bold" fill="#262626">Wystawa Sztuki Nowoczesnej</text>
        <text x="16" y="270" font-family="Arial, sans-serif" font-size="12" fill="#8c8c8c">Nr: PROJ-2025-001</text>
        <rect x="250" y="235" width="60" height="20" fill="#52c41a" rx="10"/>
        <text x="260" y="247" font-family="Arial, sans-serif" font-size="10" fill="white">W realizacji</text>

        <!-- Project Meta -->
        <rect x="16" y="280" width="40" height="18" fill="#1890ff" rx="9"/>
        <text x="20" y="291" font-family="Arial, sans-serif" font-size="9" fill="white">Wystawa</text>
        <text x="70" y="291" font-family="Arial, sans-serif" font-size="11" fill="#8c8c8c">📍 Warszawa, Centrum Sztuki</text>

        <!-- Client and Deadline -->
        <text x="16" y="310" font-family="Arial, sans-serif" font-size="11" fill="#262626">👤 Klient: Galeria Narodowa</text>
        <text x="16" y="325" font-family="Arial, sans-serif" font-size="11" fill="#262626">📅 Deadline: 15.03.2025</text>

        <!-- Progress Bar -->
        <text x="16" y="345" font-family="Arial, sans-serif" font-size="11" font-weight="bold" fill="#262626">Postęp</text>
        <text x="280" y="345" font-family="Arial, sans-serif" font-size="11" fill="#262626">65%</text>
        <rect x="16" y="350" width="288" height="6" fill="#f0f0f0" rx="3"/>
        <rect x="16" y="350" width="187" height="6" fill="url(#primaryGradient)" rx="3"/>

        <!-- Modules Section -->
        <text x="16" y="375" font-family="Arial, sans-serif" font-size="11" font-weight="bold" fill="#262626">MODUŁY PROJEKTU:</text>
        <text x="16" y="390" font-family="Arial, sans-serif" font-size="10" fill="#262626">- Koncepcja</text>
        <text x="16" y="405" font-family="Arial, sans-serif" font-size="10" fill="#262626">- Materiały</text>
        <text x="16" y="420" font-family="Arial, sans-serif" font-size="10" fill="#262626">- Logistyka</text>

        <!-- Total Elements -->
        <rect x="16" y="430" width="288" height="1" fill="#f0f0f0"/>
        <text x="16" y="445" font-family="Arial, sans-serif" font-size="9" fill="#8c8c8c">Łącznie elementów: 24</text>

        <!-- Manager Info -->
        <rect x="16" y="450" width="288" height="1" fill="#f0f0f0"/>
        <circle cx="25" cy="465" r="8" fill="#1890ff"/>
        <text x="40" y="470" font-family="Arial, sans-serif" font-size="10" fill="#8c8c8c">Manager: Anna Kowalska</text>

        <!-- Action Buttons -->
        <rect x="0" y="480" width="320" height="30" fill="#fafafa" stroke="none" rx="0 0 8 8"/>
        <rect x="20" y="485" width="60" height="20" fill="none" stroke="#d9d9d9" stroke-width="1" rx="4"/>
        <text x="30" y="497" font-family="Arial, sans-serif" font-size="9" fill="#262626">📄 Edytuj</text>
        <rect x="100" y="485" width="60" height="20" fill="none" stroke="#d9d9d9" stroke-width="1" rx="4"/>
        <text x="110" y="497" font-family="Arial, sans-serif" font-size="9" fill="#262626">🔗 3D Model</text>
    </g>

    <!-- ProjectHeader Component -->
    <g transform="translate(360, 50)">
        <text x="0" y="20" font-family="Arial, sans-serif" font-size="16" font-weight="bold" fill="#333">ProjectHeader Component (Ant Design)</text>

        <!-- Breadcrumb Navigation -->
        <text x="0" y="50" font-family="Arial, sans-serif" font-size="12" fill="#8c8c8c">← Dashboard > Project > Project 123</text>

        <!-- Main Card -->
        <rect x="0" y="70" width="400" height="100" fill="white" stroke="#d9d9d9" stroke-width="1" rx="8" filter="url(#cardShadow)"/>

        <!-- Project Title and Status -->
        <text x="20" y="95" font-family="Arial, sans-serif" font-size="18" font-weight="bold" fill="#262626">Wystawa Sztuki Nowoczesnej</text>
        <rect x="200" y="80" width="80" height="20" fill="#52c41a" rx="10"/>
        <text x="210" y="92" font-family="Arial, sans-serif" font-size="10" fill="white">W realizacji</text>

        <!-- Project Meta Info -->
        <text x="20" y="115" font-family="Arial, sans-serif" font-size="12" fill="#8c8c8c">📅 15.03.2025</text>
        <text x="120" y="115" font-family="Arial, sans-serif" font-size="12" fill="#8c8c8c">👤 Anna Kowalska</text>

        <!-- Team Avatars -->
        <circle cx="320" cy="90" r="12" fill="#1890ff"/>
        <text x="315" y="95" font-family="Arial, sans-serif" font-size="8" fill="white">A</text>
        <circle cx="340" cy="90" r="12" fill="#52c41a"/>
        <text x="335" y="95" font-family="Arial, sans-serif" font-size="8" fill="white">B</text>
        <circle cx="360" cy="90" r="12" fill="#fa8c16"/>
        <text x="355" y="95" font-family="Arial, sans-serif" font-size="8" fill="white">C</text>
        <circle cx="380" cy="90" r="12" fill="#f0f0f0" stroke="#d9d9d9" stroke-width="1"/>
        <text x="375" y="95" font-family="Arial, sans-serif" font-size="8" fill="#8c8c8c">+2</text>

        <!-- Action Buttons -->
        <rect x="280" y="120" width="50" height="30" fill="white" stroke="#d9d9d9" stroke-width="1" rx="4"/>
        <text x="295" y="138" font-family="Arial, sans-serif" font-size="10" fill="#262626">👤 Invite</text>
        <rect x="340" y="120" width="50" height="30" fill="url(#primaryGradient)" stroke="none" rx="4"/>
        <text x="355" y="138" font-family="Arial, sans-serif" font-size="10" fill="white">✏️ Edit</text>
    </g>

    <!-- PageHeader Component -->
    <g transform="translate(780, 50)">
        <text x="0" y="20" font-family="Arial, sans-serif" font-size="16" font-weight="bold" fill="#333">PageHeader Component (Bootstrap)</text>

        <!-- Header Container -->
        <rect x="0" y="30" width="400" height="60" fill="#f8f9fa" stroke="#dee2e6" stroke-width="1" rx="4"/>

        <!-- Title Section -->
        <text x="20" y="50" font-family="Arial, sans-serif" font-size="18" font-weight="bold" fill="#333">Zarządzanie Projektami</text>
        <text x="20" y="70" font-family="Arial, sans-serif" font-size="14" fill="#6c757d">Przeglądaj i zarządzaj wszystkimi projektami</text>

        <!-- Action Buttons -->
        <rect x="280" y="40" width="80" height="30" fill="url(#primaryGradient)" stroke="none" rx="4"/>
        <text x="310" y="58" font-family="Arial, sans-serif" font-size="12" fill="white" text-anchor="middle">+ Nowy</text>
        <rect x="370" y="40" width="80" height="30" fill="white" stroke="#6c757d" stroke-width="1" rx="4"/>
        <text x="410" y="58" font-family="Arial, sans-serif" font-size="12" fill="#6c757d" text-anchor="middle">Filtruj</text>
    </g>

    <!-- LogisticsTab Component (Detailed) -->
    <g transform="translate(20, 550)">
        <text x="0" y="20" font-family="Arial, sans-serif" font-size="16" font-weight="bold" fill="#333">LogisticsTab Component (Bootstrap)</text>

        <!-- Header -->
        <rect x="0" y="30" width="600" height="40" fill="#f8f9fa" stroke="#dee2e6" stroke-width="1" rx="4"/>
        <text x="20" y="50" font-family="Arial, sans-serif" font-size="16" font-weight="bold" fill="#333">Logistyka i Montaż</text>
        <rect x="480" y="35" width="100" height="30" fill="url(#primaryGradient)" rx="4"/>
        <text x="520" y="53" font-family="Arial, sans-serif" font-size="12" fill="white" text-anchor="middle">+ Dodaj zadanie</text>

        <!-- Summary Card -->
        <rect x="0" y="80" width="600" height="60" fill="url(#cardGradient)" stroke="none" rx="4"/>
        <text x="300" y="105" font-family="Arial, sans-serif" font-size="14" fill="#333" text-anchor="middle">Koszt całkowity logistyki</text>
        <text x="300" y="125" font-family="Arial, sans-serif" font-size="24" font-weight="bold" fill="#333" text-anchor="middle">2,150.00 PLN</text>

        <!-- Logistics Cards Row 1 -->
        <!-- Card 1 -->
        <rect x="0" y="160" width="190" height="140" fill="white" stroke="#dee2e6" stroke-width="1" rx="4" filter="url(#cardShadow)"/>
        <rect x="0" y="160" width="190" height="30" fill="#f8f9fa" stroke="none" rx="4"/>
        <rect x="10" y="165" width="50" height="20" fill="#007bff" rx="2"/>
        <text x="15" y="177" font-family="Arial, sans-serif" font-size="9" fill="white">Transport</text>
        <rect x="70" y="165" width="60" height="20" fill="#28a745" rx="2"/>
        <text x="75" y="177" font-family="Arial, sans-serif" font-size="9" fill="white">Zakończone</text>

        <text x="10" y="200" font-family="Arial, sans-serif" font-size="12" font-weight="bold" fill="#333">Transport materiałów</text>
        <text x="10" y="215" font-family="Arial, sans-serif" font-size="10" fill="#6c757d">Przewóz płyt MDF i komponentów</text>
        <text x="10" y="235" font-family="Arial, sans-serif" font-size="9" fill="#6c757d">Data: 2025-01-10</text>
        <text x="10" y="250" font-family="Arial, sans-serif" font-size="9" fill="#6c757d">Przypisane: Jan Kowalski</text>
        <text x="10" y="265" font-family="Arial, sans-serif" font-size="9" fill="#6c757d">Koszt: 150.00 PLN</text>

        <!-- Card 2 -->
        <rect x="205" y="160" width="190" height="140" fill="white" stroke="#dee2e6" stroke-width="1" rx="4" filter="url(#cardShadow)"/>
        <rect x="205" y="160" width="190" height="30" fill="#f8f9fa" stroke="none" rx="4"/>
        <rect x="215" y="165" width="50" height="20" fill="#28a745" rx="2"/>
        <text x="220" y="177" font-family="Arial, sans-serif" font-size="9" fill="white">Montaż</text>
        <rect x="275" y="165" width="60" height="20" fill="#6c757d" rx="2"/>
        <text x="280" y="177" font-family="Arial, sans-serif" font-size="9" fill="white">Zaplanowane</text>

        <text x="215" y="200" font-family="Arial, sans-serif" font-size="12" font-weight="bold" fill="#333">Montaż na miejscu</text>
        <text x="215" y="215" font-family="Arial, sans-serif" font-size="10" fill="#6c757d">Składanie elementów w lokalu</text>
        <text x="215" y="235" font-family="Arial, sans-serif" font-size="9" fill="#6c757d">Data: 2025-01-25</text>
        <text x="215" y="250" font-family="Arial, sans-serif" font-size="9" fill="#6c757d">Przypisane: Marek Wójcik</text>
        <text x="215" y="265" font-family="Arial, sans-serif" font-size="9" fill="#6c757d">Koszt: 800.00 PLN</text>

        <!-- Card 3 -->
        <rect x="410" y="160" width="190" height="140" fill="white" stroke="#dee2e6" stroke-width="1" rx="4" filter="url(#cardShadow)"/>
        <rect x="410" y="160" width="190" height="30" fill="#f8f9fa" stroke="none" rx="4"/>
        <rect x="420" y="165" width="50" height="20" fill="#ffc107" rx="2"/>
        <text x="425" y="177" font-family="Arial, sans-serif" font-size="9" fill="black">Pakowanie</text>
        <rect x="480" y="165" width="60" height="20" fill="#ffc107" rx="2"/>
        <text x="485" y="177" font-family="Arial, sans-serif" font-size="9" fill="black">W trakcie</text>

        <text x="420" y="200" font-family="Arial, sans-serif" font-size="12" font-weight="bold" fill="#333">Pakowanie elementów</text>
        <text x="420" y="215" font-family="Arial, sans-serif" font-size="10" fill="#6c757d">Zabezpieczenie przed transportem</text>
        <text x="420" y="235" font-family="Arial, sans-serif" font-size="9" fill="#6c757d">Data: 2025-01-20</text>
        <text x="420" y="250" font-family="Arial, sans-serif" font-size="9" fill="#6c757d">Przypisane: Tomasz Kowal</text>
        <text x="420" y="265" font-family="Arial, sans-serif" font-size="9" fill="#6c757d">Koszt: 200.00 PLN</text>
    </g>

    <!-- ConceptBoard Component (Detailed) -->
    <g transform="translate(640, 550)">
        <text x="0" y="20" font-family="Arial, sans-serif" font-size="16" font-weight="bold" fill="#333">ConceptBoard Component (Bootstrap)</text>

        <!-- Header -->
        <rect x="0" y="30" width="500" height="40" fill="#f8f9fa" stroke="#dee2e6" stroke-width="1" rx="4"/>
        <text x="20" y="50" font-family="Arial, sans-serif" font-size="16" font-weight="bold" fill="#333">Koncepcja Projektu</text>
        <rect x="380" y="35" width="100" height="30" fill="url(#primaryGradient)" rx="4"/>
        <text x="420" y="53" font-family="Arial, sans-serif" font-size="12" fill="white" text-anchor="middle">+ Dodaj koncepcję</text>

        <!-- Concept Cards -->
        <!-- Card 1 -->
        <rect x="0" y="80" width="240" height="120" fill="white" stroke="#dee2e6" stroke-width="1" rx="4" filter="url(#cardShadow)"/>
        <rect x="0" y="80" width="240" height="30" fill="#f8f9fa" stroke="none" rx="4"/>
        <text x="10" y="100" font-family="Arial, sans-serif" font-size="12" font-weight="bold" fill="#333">Wstępna koncepcja architektoniczna</text>
        <rect x="180" y="85" width="50" height="20" fill="#28a745" rx="2"/>
        <text x="185" y="97" font-family="Arial, sans-serif" font-size="9" fill="white">Zatwierdzone</text>

        <text x="10" y="120" font-family="Arial, sans-serif" font-size="10" fill="#6c757d">Podstawowe założenia projektowe i układ funkcjonalny</text>
        <text x="10" y="140" font-family="Arial, sans-serif" font-size="9" fill="#6c757d">Autor: Anna Kowalska</text>
        <text x="150" y="140" font-family="Arial, sans-serif" font-size="9" fill="#6c757d">2025-01-05</text>

        <rect x="10" y="150" width="30" height="15" fill="#f8f9fa" stroke="#dee2e6" stroke-width="1" rx="2"/>
        <text x="15" y="160" font-family="Arial, sans-serif" font-size="8" fill="#333">concept_v1.pdf</text>
        <rect x="50" y="150" width="40" height="15" fill="#f8f9fa" stroke="#dee2e6" stroke-width="1" rx="2"/>
        <text x="55" y="160" font-family="Arial, sans-serif" font-size="8" fill="#333">sketches.dwg</text>

        <!-- Card 2 -->
        <rect x="260" y="80" width="240" height="120" fill="white" stroke="#dee2e6" stroke-width="1" rx="4" filter="url(#cardShadow)"/>
        <rect x="260" y="80" width="240" height="30" fill="#f8f9fa" stroke="none" rx="4"/>
        <text x="270" y="100" font-family="Arial, sans-serif" font-size="12" font-weight="bold" fill="#333">Koncepcja techniczna</text>
        <rect x="420" y="85" width="60" height="20" fill="#ffc107" rx="2"/>
        <text x="425" y="97" font-family="Arial, sans-serif" font-size="9" fill="black">W recenzji</text>

        <text x="270" y="120" font-family="Arial, sans-serif" font-size="10" fill="#6c757d">Rozwiązania konstrukcyjne i materiałowe</text>
        <text x="270" y="140" font-family="Arial, sans-serif" font-size="9" fill="#6c757d">Autor: Paweł Nowak</text>
        <text x="410" y="140" font-family="Arial, sans-serif" font-size="9" fill="#6c757d">2025-01-08</text>

        <rect x="270" y="150" width="50" height="15" fill="#f8f9fa" stroke="#dee2e6" stroke-width="1" rx="2"/>
        <text x="275" y="160" font-family="Arial, sans-serif" font-size="8" fill="#333">technical_concept.pdf</text>

        <!-- Action Buttons for Card 1 -->
        <rect x="10" y="210" width="50" height="20" fill="white" stroke="#007bff" stroke-width="1" rx="2"/>
        <text x="20" y="222" font-family="Arial, sans-serif" font-size="9" fill="#007bff">👁️ Podgląd</text>
        <rect x="70" y="210" width="50" height="20" fill="white" stroke="#6c757d" stroke-width="1" rx="2"/>
        <text x="80" y="222" font-family="Arial, sans-serif" font-size="9" fill="#6c757d">✏️ Edytuj</text>
        <rect x="130" y="210" width="60" height="20" fill="white" stroke="#28a745" stroke-width="1" rx="2"/>
        <text x="140" y="222" font-family="Arial, sans-serif" font-size="9" fill="#28a745">✓ Zatwierdź</text>
    </g>
</svg>
